<?xml version="1.0" encoding="utf-8"?>
<!-- Generator: Adobe Illustrator 16.0.0, SVG Export Plug-In . SVG Version: 6.00 Build 0)  -->
<!DOCTYPE svg PUBLIC "-//W3C//DTD SVG 1.1//EN" "http://www.w3.org/Graphics/SVG/1.1/DTD/svg11.dtd">
<svg version="1.1" id="Layer_1" xmlns="http://www.w3.org/2000/svg" xmlns:xlink="http://www.w3.org/1999/xlink" x="0px" y="0px"
	 width="144px" height="144px" viewBox="0 0 144 144" enable-background="new 0 0 144 144" xml:space="preserve">
<g>
	<g id="XMLID_1_">
		<g>
			<polygon points="-209.214,-71.047 -209.214,-67.417 -213.084,-67.417 -326.454,-67.417 -330.454,-67.417 -330.454,-71.047 
				-330.454,-143.047 -326.454,-143.047 -326.454,-71.047 -213.084,-71.047 -213.084,-143.047 -209.214,-143.047 			"/>
			<rect x="-326.454" y="-143.047" fill="#FFFFFF" width="113.37" height="72"/>
			<polygon points="-213.084,-146.917 -213.084,-143.047 -326.454,-143.047 -326.454,-146.917 -322.714,-146.917 -322.714,-150.667 
				-319.084,-150.667 -319.084,-146.917 -281.084,-146.917 -281.084,-150.667 -277.454,-150.667 -277.454,-146.917 			"/>
			<polygon fill="#FFFFFF" points="-281.084,-150.667 -281.084,-146.917 -319.084,-146.917 -319.084,-150.667 -315.454,-150.667 
				-315.454,-154.417 -284.714,-154.417 -284.714,-150.667 			"/>
			<rect x="-284.714" y="-154.417" width="3.63" height="3.75"/>
			<rect x="-315.454" y="-158.167" width="30.74" height="3.75"/>
			<rect x="-319.084" y="-154.417" width="3.63" height="3.75"/>
		</g>
		<g>
		</g>
	</g>
</g>
<g>
	<g>
		<g id="XMLID_2_">
			<g>
				<path d="M119.17,128.665v3.67h-3.67h-87h-3.67v-3.67V15.335v-3.67h3.67h64.33h3.84v3.67h3.71v3.62h-3.71v15.05h15.08v-3.73h3.75
					v3.73h3.67v3.83V128.665z M115.5,128.665v-90.83H96.67h-3.84v-3.83v-18.67H28.5v113.33H115.5z"/>
				<polygon fill="#FFFFFF" points="115.5,37.835 115.5,128.665 28.5,128.665 28.5,15.335 92.83,15.335 92.83,34.005 92.83,37.835 
					96.67,37.835 				"/>
				<polygon fill="#FFFFFF" points="111.75,30.275 111.75,34.005 96.67,34.005 96.67,18.955 100.38,18.955 100.38,22.775 
					104.19,22.775 104.19,26.585 107.94,26.585 107.94,30.275 				"/>
				<rect x="107.94" y="26.585" width="3.81" height="3.69"/>
				<rect x="104.19" y="22.775" width="3.75" height="3.81"/>
				<rect x="100.38" y="18.955" width="3.811" height="3.82"/>
			</g>
			<g>
			</g>
		</g>
	</g>
	<g>
		<polygon points="92.75,56.466 88.98,56.466 85.21,56.466 81.43,56.466 81.43,60.237 85.21,60.237 88.98,60.237 92.75,60.237 
			92.75,64.007 88.98,64.007 85.21,64.007 85.21,67.776 88.98,67.776 92.75,67.776 92.75,71.546 92.75,75.327 92.75,79.097 
			92.75,82.866 92.75,86.637 88.98,86.637 88.98,90.406 88.98,94.176 92.75,94.176 96.53,94.176 96.53,90.406 96.53,86.637 
			96.53,82.866 96.53,79.097 96.53,75.327 96.53,71.546 96.53,67.776 96.53,64.007 96.53,60.237 96.53,56.466 		"/>
		<polygon points="77.66,67.776 77.66,64.007 81.43,64.007 81.43,60.237 77.66,60.237 73.89,60.237 70.109,60.237 70.109,64.007 
			73.89,64.007 73.89,67.776 73.89,71.546 70.109,71.546 66.34,71.546 62.569,71.546 62.569,75.327 66.34,75.327 70.109,75.327 
			73.89,75.327 73.89,79.097 73.89,82.866 73.89,86.637 73.89,90.406 70.109,90.406 70.109,94.176 70.109,97.946 73.89,97.946 
			77.66,97.946 77.66,94.176 77.66,90.406 77.66,86.637 77.66,82.866 77.66,79.097 77.66,75.327 77.66,71.546 81.43,71.546 
			85.21,71.546 85.21,67.776 81.43,67.776 		"/>
		<polygon points="66.34,67.776 70.109,67.776 70.109,64.007 66.34,64.007 62.569,64.007 58.79,64.007 58.79,67.776 62.569,67.776 
					"/>
		<polygon points="55.02,75.327 55.02,71.546 58.79,71.546 58.79,67.776 55.02,67.776 51.25,67.776 51.25,71.546 51.25,75.327 
			51.25,79.097 51.25,82.866 51.25,86.637 51.25,90.406 51.25,94.176 47.47,94.176 47.47,97.946 47.47,101.716 51.25,101.716 
			55.02,101.716 55.02,97.946 55.02,94.176 55.02,90.406 55.02,86.637 55.02,82.866 55.02,79.097 58.79,79.097 62.569,79.097 
			62.569,75.327 58.79,75.327 		"/>
	</g>
</g>
</svg>
