<?xml version="1.0" encoding="utf-8"?>
<!-- Generator: Adobe Illustrator 16.0.0, SVG Export Plug-In . SVG Version: 6.00 Build 0)  -->
<!DOCTYPE svg PUBLIC "-//W3C//DTD SVG 1.1//EN" "http://www.w3.org/Graphics/SVG/1.1/DTD/svg11.dtd">
<svg version="1.1" id="Layer_1" xmlns="http://www.w3.org/2000/svg" xmlns:xlink="http://www.w3.org/1999/xlink" x="0px" y="0px"
	 width="144px" height="144px" viewBox="0 0 144 144" enable-background="new 0 0 144 144" xml:space="preserve">
<g>
	<g id="XMLID_1_">
		<g>
			<polygon points="132.62,113.745 132.62,117.375 128.75,117.375 15.38,117.375 11.38,117.375 11.38,113.745 11.38,41.745 
				15.38,41.745 15.38,113.745 128.75,113.745 128.75,41.745 132.62,41.745 			"/>
			<rect x="15.38" y="41.745" fill="#FFFFFF" width="113.37" height="72"/>
			<polygon points="128.75,37.875 128.75,41.745 15.38,41.745 15.38,37.875 19.12,37.875 19.12,34.125 22.75,34.125 22.75,37.875 
				60.75,37.875 60.75,34.125 64.38,34.125 64.38,37.875 			"/>
			<polygon fill="#FFFFFF" points="60.75,34.125 60.75,37.875 22.75,37.875 22.75,34.125 26.38,34.125 26.38,30.375 57.12,30.375 
				57.12,34.125 			"/>
			<rect x="57.12" y="30.375" width="3.63" height="3.75"/>
			<rect x="26.38" y="26.625" width="30.74" height="3.75"/>
			<rect x="22.75" y="30.375" width="3.63" height="3.75"/>
		</g>
		<g>
		</g>
	</g>
</g>
</svg>
